<svg width="96" height="96" viewBox="0 0 96 96" fill="none" xmlns="http://www.w3.org/2000/svg">
    <path d="M28.312 72C25.5813 72 23.2133 71.4453 21.208 70.336C19.2027 69.2267 17.6667 67.648 16.6 65.6C15.5333 63.5093 15 61.056 15 58.24V37.76C15 34.9013 15.5333 32.448 16.6 30.4C17.6667 28.352 19.2027 26.7733 21.208 25.664C23.2133 24.5547 25.5813 24 28.312 24C31.0427 24 33.3893 24.5547 35.352 25.664C37.3147 26.7733 38.8293 28.352 39.896 30.4C40.9627 32.448 41.496 34.9013 41.496 37.76V58.24C41.496 61.0987 40.9627 63.552 39.896 65.6C38.8293 67.648 37.3147 69.2267 35.352 70.336C33.3893 71.4453 31.0427 72 28.312 72ZM28.312 68.8C31.3413 68.8 33.7093 67.8613 35.416 65.984C37.1227 64.1067 37.976 61.5253 37.976 58.24V37.76C37.976 34.4747 37.1227 31.8933 35.416 30.016C33.7093 28.1387 31.3413 27.2 28.312 27.2C25.2827 27.2 22.8933 28.1387 21.144 30.016C19.3947 31.8933 18.52 34.4747 18.52 37.76V58.24C18.52 61.4827 19.3947 64.064 21.144 65.984C22.8933 67.8613 25.2827 68.8 28.312 68.8ZM28.248 51.008C27.3093 51.008 26.5413 50.7093 25.944 50.112C25.3467 49.5147 25.048 48.7467 25.048 47.808C25.048 46.8267 25.3467 46.0587 25.944 45.504C26.5413 44.9067 27.3093 44.608 28.248 44.608C29.2293 44.608 29.9973 44.9067 30.552 45.504C31.1493 46.0587 31.448 46.8267 31.448 47.808C31.448 48.7467 31.1493 49.5147 30.552 50.112C29.9973 50.7093 29.2293 51.008 28.248 51.008ZM53.823 71.36V68.48H67.071V27.52L54.335 36.864V33.28L66.047 24.64H70.271V68.48H81.343V71.36H53.823Z" fill="black"/>
    <style>
        path { fill: #000; }
        @media (prefers-color-scheme: dark) {
            path { fill: #FFF; }
        }
    </style>
</svg>
